PathFileType	4	(X/Y/Z)	/Users/itak/Documents/Research/Walk-IL/dataset/trc/00217_00009.trc
DataRate	CameraRate	NumFrames	NumMarkers	Units	OrigDataRate	OrigDataStartFrame	OrigNumFrames
100.000000	100.000000	4	53	mm	100.000000	375	501
Frame#	Time	RPSI			LPSI			L3			STRN			T10			C7			CLAV			RBAK			LBAK			LSHO			LUPA			LAEL			LAOL			LWTS			LWPS			LFRA			LIFD			LHPS			LHTS			RSHO			RUPA			RAEL			RAOL			RWPS			RFRA			RIFD			RHPS			RBHD			LFHD			RFHD			LBHD			LHIP			RHIP			RASI			LASI			LKNE			LTHI			LANK			LTIP			LTOE			LMT1			LMT5			LHEE			RKNE			RTHI			RANK			RTIP			RTOE			RMT1			RMT5			RHEE			RHTS			RWTS			
		X1	Y1	Z1	X2	Y2	Z2	X3	Y3	Z3	X4	Y4	Z4	X5	Y5	Z5	X6	Y6	Z6	X7	Y7	Z7	X8	Y8	Z8	X9	Y9	Z9	X10	Y10	Z10	X11	Y11	Z11	X12	Y12	Z12	X13	Y13	Z13	X14	Y14	Z14	X15	Y15	Z15	X16	Y16	Z16	X17	Y17	Z17	X18	Y18	Z18	X19	Y19	Z19	X20	Y20	Z20	X21	Y21	Z21	X22	Y22	Z22	X23	Y23	Z23	X24	Y24	Z24	X25	Y25	Z25	X26	Y26	Z26	X27	Y27	Z27	X28	Y28	Z28	X29	Y29	Z29	X30	Y30	Z30	X31	Y31	Z31	X32	Y32	Z32	X33	Y33	Z33	X34	Y34	Z34	X35	Y35	Z35	X36	Y36	Z36	X37	Y37	Z37	X38	Y38	Z38	X39	Y39	Z39	X40	Y40	Z40	X41	Y41	Z41	X42	Y42	Z42	X43	Y43	Z43	X44	Y44	Z44	X45	Y45	Z45	X46	Y46	Z46	X47	Y47	Z47	X48	Y48	Z48	X49	Y49	Z49	X50	Y50	Z50	X51	Y51	Z51	X52	Y52	Z52	X53	Y53	Z53	

376	3.75	392.4701843261719	1016.849975585938	-105.7636642456055	397.4148254394531	1028.886108398438	-223.3748321533203	392.9069519042969	1112.583984375	-181.3338470458984	643.567626953125	1296.963989257812	-181.3514862060547	388.1467895507812	1239.794067382812	-180.5761260986328	454.37744140625	1500.048583984375	-191.0455780029297	618.8858032226562	1415.045288085938	-183.8147277832031	377.0341796875	1365.570678710938	-112.6549987792969	436.4687805175781	1460.005126953125	-302.5877685546875	528.8845825195312	1461.292358398438	-348.5670166015625	531.6655883789062	1349.529907226562	-430.7603149414062	625.2623291015625	1162.706787109375	-463.6419372558594	554.9063110351562	1114.826416015625	-438.2869262695312	789.7099609375	985.1852416992188	-378.5603942871094	794.4285888671875	965.1298217773438	-461.2786560058594	692.8897705078125	1075.1669921875	-468.9775390625	893.2000122070312	819.037841796875	-379.8156127929688	850.261962890625	895.0068359375	-449.4693603515625	882.1917724609375	909.556640625	-391.1078491210938	514.5789184570312	1465.112182617188	-20.52485466003418	497.0557250976562	1402.763549804688	48.61551666259766	477.5097351074219	1124.611328125	99.83982849121094	435.5382995605469	1115.90283203125	15.30247116088867	559.386474609375	894.1607055664062	121.8020629882812	504.9784851074219	1056.324951171875	113.057373046875	630.3614501953125	716.9505004882812	53.46985244750977	604.6204833984375	788.7889404296875	123.8143844604492	495.0072937011719	1652.502197265625	-140.2314147949219	689.8244018554688	1703.443725585938	-245.7385101318359	694.5200805664062	1702.793579101562	-145.7692718505859	532.8154907226562	1660.7490234375	-274.9210815429688	501.0584106445312	978.5643920898438	-365.834228515625	495.0662231445312	980.82666015625	0.4466820061206818	587.7428588867188	1032.44091796875	-35.37109375	600.1316528320312	1023.211975097656	-315.7105407714844	538.5479736328125	495.9764404296875	-296.53662109375	538.3328857421875	639.7888793945312	-332.3919372558594	396.8795471191406	34.97735977172852	-244.6033172607422	465.2230224609375	273.2781066894531	-281.0263977050781	616.8087768554688	35.93915557861328	-209.2585906982422	552.4798583984375	34.66366195678711	-160.6743469238281	520.1549682617188	30.53067588806152	-274.892822265625	341.4454650878906	48.197509765625	-188.6015319824219	701.3365478515625	530.3776245117188	-16.10774421691895	607.7736206054688	783.0012817382812	12.82235240936279	732.5765991210938	32.25973510742188	-36.29768753051758	737.3179931640625	415.9024963378906	-29.11408424377441	936.8032836914062	81.90060424804688	-62.71888732910156	886.122802734375	72.00140380859375	-110.4734649658203	839.9067993164062	42.9647216796875	-5.788699150085449	674.162353515625	30.66824340820312	-97.40614318847656	653.4146728515625	791.1590576171875	70.75746917724609	605.41357421875	907.1332397460938	52.56015014648438	
377	3.76	399.8860778808594	1015.76708984375	-105.7059020996094	404.9311218261719	1027.962158203125	-223.2722473144531	400.1198120117188	1111.614135742188	-181.1181640625	650.3341064453125	1296.43359375	-180.9543304443359	394.8547058105469	1238.809814453125	-180.163330078125	460.7911376953125	1499.193237304688	-190.4364471435547	625.4471435546875	1414.484619140625	-183.3384399414062	383.7099609375	1364.536743164062	-112.0387649536133	442.8528137207031	1459.17333984375	-301.9939575195312	535.23974609375	1460.547729492188	-348.0335083007812	538.1043701171875	1348.764282226562	-430.123046875	632.1378173828125	1162.115112304688	-462.8330993652344	562.05908203125	1114.059936523438	-437.3612976074219	797.6683349609375	985.9905395507812	-377.1098327636719	802.5403442382812	965.5919189453125	-459.7098388671875	700.344970703125	1074.996337890625	-467.9234313964844	902.4274291992188	820.6366577148438	-377.5722045898438	858.7809448242188	895.750244140625	-447.4427490234375	890.9678344726562	910.1512451171875	-389.2709655761719	521.1936645507812	1464.268798828125	-19.9648323059082	503.82666015625	1401.861083984375	49.15231704711914	484.5474548339844	1123.684814453125	100.2498779296875	442.4017639160156	1115.036499023438	15.75601196289062	566.0630493164062	893.1386108398438	122.3190155029297	511.9416809082031	1055.37890625	113.4428405761719	635.4727783203125	715.3118286132812	53.80150604248047	610.4749755859375	787.4453125	124.1886978149414	501.4661254882812	1651.9658203125	-139.8736877441406	696.2503662109375	1702.591064453125	-245.4832000732422	700.98291015625	1702.133422851562	-145.5236358642578	539.2052612304688	1659.955932617188	-274.569091796875	508.719970703125	978.0138549804688	-365.7267150878906	502.5315246582031	979.8345947265625	0.5391004085540771	595.1333618164062	1031.736083984375	-35.15909194946289	607.65771484375	1022.699279785156	-315.5791931152344	541.9813842773438	495.5275573730469	-296.5979309082031	543.3297729492188	639.2927856445312	-332.4416809082031	396.9540405273438	35.18482208251953	-244.4869842529297	466.7665405273438	273.3777770996094	-281.0616149902344	616.8418579101562	35.89774322509766	-209.2882843017578	552.5381469726562	34.69779205322266	-160.7228088378906	520.1448364257812	30.50609970092773	-274.9021301269531	341.5224914550781	48.84420013427734	-188.4982299804688	707.390625	528.9036865234375	-16.94325637817383	614.6863403320312	781.7216186523438	12.96540069580078	753.8136596679688	31.57180595397949	-38.31744384765625	746.254150390625	415.5932006835938	-30.55241775512695	956.7291870117188	83.87527465820312	-68.02616882324219	905.337158203125	74.05330657958984	-115.0547866821289	861.5841064453125	42.94991683959961	-9.797119140625	694.3245239257812	29.81341934204102	-98.50638580322266	659.12353515625	789.3941040039062	70.93508911132812	611.8839111328125	905.8072509765625	52.93121719360352	
378	3.77	407.3684997558594	1014.621398925781	-105.563850402832	412.5311279296875	1026.983642578125	-223.0866241455078	407.4329223632812	1110.552368164062	-180.83642578125	657.0791015625	1295.897705078125	-180.5404357910156	401.5956115722656	1237.738037109375	-179.669677734375	467.1380615234375	1498.278076171875	-189.7448883056641	631.9649658203125	1413.904296875	-182.8186798095703	390.3448181152344	1363.40283203125	-111.3744430541992	449.1576232910156	1458.285400390625	-301.3185729980469	541.5043334960938	1459.77783203125	-347.4537658691406	544.3731689453125	1347.935668945312	-429.4363708496094	638.65380859375	1161.3544921875	-461.975830078125	568.8560180664062	1113.227294921875	-436.3700256347656	805.1724243164062	986.519775390625	-375.6555480957031	810.1499633789062	965.7660522460938	-458.1324462890625	707.4041137695312	1074.63330078125	-466.8492736816406	911.000244140625	821.8547973632812	-375.3190002441406	866.7268676757812	896.17236328125	-445.4266967773438	899.1658935546875	910.4273681640625	-387.441162109375	527.7589721679688	1463.339721679688	-19.33362579345703	510.5580139160156	1400.860717773438	49.7501220703125	491.5938415527344	1122.659423828125	100.7111206054688	449.3034973144531	1114.066284179688	16.27334976196289	572.8323974609375	892.0308227539062	122.8290634155273	518.9450073242188	1054.335815429688	113.8665161132812	640.7095336914062	713.6369018554688	54.05573654174805	616.4727172851562	786.0357055664062	124.5240783691406	507.8380432128906	1651.375854492188	-139.3956451416016	702.5621948242188	1701.75048828125	-245.1168212890625	707.3478393554688	1701.464233398438	-145.1704711914062	545.4862060546875	1659.152954101562	-274.09912109375	516.4397583007812	977.4151000976562	-365.5577697753906	510.1473999023438	978.8013916015625	0.7114117741584778	602.6209106445312	1031.000366210938	-34.91254425048828	615.2775268554688	1022.128845214844	-315.3982543945312	545.6347045898438	495.0638732910156	-296.6265258789062	548.4607543945312	638.7584228515625	-332.4822387695312	397.0474548339844	35.43112182617188	-244.3515777587891	468.4539794921875	273.5045471191406	-281.080810546875	616.8892822265625	35.84852981567383	-209.3205108642578	552.5955810546875	34.72226333618164	-160.766357421875	520.14013671875	30.48417282104492	-274.9067077636719	341.6319885253906	49.57285690307617	-188.3723754882812	713.5521850585938	527.3942260742188	-17.90844535827637	621.7085571289062	780.352294921875	13.30063247680664	773.11328125	31.07943153381348	-40.43305206298828	754.8822021484375	415.2211608886719	-32.09074401855469	974.7520141601562	85.57890319824219	-73.14800262451172	922.7207641601562	75.88616180419922	-119.5295944213867	881.2506713867188	42.8713264465332	-13.79185676574707	712.6220092773438	29.20363426208496	-99.7686767578125	664.9430541992188	787.597900390625	71.05502319335938	618.4214477539062	904.427978515625	53.28395080566406	
379	3.78	414.9170837402344	1013.42822265625	-105.328987121582	420.2173156738281	1025.96630859375	-222.8040313720703	414.8431701660156	1109.406982421875	-180.4763641357422	663.8103637695312	1295.360595703125	-180.1015930175781	408.3885803222656	1236.585571289062	-179.0913696289062	473.4218444824219	1497.305908203125	-188.9739685058594	638.443359375	1413.30712890625	-182.2545471191406	396.9507751464844	1362.173828125	-110.6665496826172	455.3896789550781	1457.344360351562	-300.5633544921875	547.689208984375	1458.983154296875	-346.8303527832031	550.4852294921875	1347.045288085938	-428.7018737792969	644.832763671875	1160.434692382812	-461.0844116210938	575.3135986328125	1112.332763671875	-435.3410339355469	812.226806640625	986.7613525390625	-374.1976928710938	817.280029296875	965.6488647460938	-456.5520629882812	714.0859375	1074.075927734375	-465.7613220214844	918.9266357421875	822.686767578125	-373.0631408691406	874.1295776367188	896.2861328125	-443.4375	906.817626953125	910.3970336914062	-385.6360168457031	534.2713623046875	1462.330444335938	-18.63340759277344	517.2479858398438	1399.766235351562	50.40728378295898	498.6487121582031	1121.5390625	101.2141265869141	456.2538146972656	1112.99462890625	16.84355354309082	579.6788940429688	890.8409423828125	123.3278503417969	525.978759765625	1053.200561523438	114.3187255859375	646.1142578125	711.9429931640625	54.25737762451172	622.6382446289062	784.5726318359375	124.8365249633789	514.1221923828125	1650.72900390625	-138.7923126220703	708.7626342773438	1700.937255859375	-244.6329956054688	713.6121826171875	1700.79443359375	-144.7012786865234	551.6615600585938	1658.342651367188	-273.5061950683594	524.2035522460938	976.7742309570312	-365.326416015625	517.9185791015625	977.7255249023438	0.9663016796112061	610.215087890625	1030.231201171875	-34.62287902832031	622.9794921875	1021.501525878906	-315.1648559570312	549.53271484375	494.58056640625	-296.6253356933594	553.7366943359375	638.1900024414062	-332.5005493164062	397.1648254394531	35.73019790649414	-244.2036285400391	470.3105163574219	273.6559143066406	-281.0973510742188	616.9525146484375	35.79193115234375	-209.3552398681641	552.6535034179688	34.74100875854492	-160.8084106445312	520.1409301757812	30.46365928649902	-274.9079895019531	341.7756042480469	50.38582229614258	-188.2422332763672	719.8679809570312	525.8690795898438	-18.99738311767578	628.8606567382812	778.9028930664062	13.789306640625	790.36279296875	30.67032051086426	-42.6346435546875	763.2321166992188	414.7390441894531	-33.71729278564453	990.792724609375	87.09055328369141	-77.98209381103516	938.2171630859375	77.48511505126953	-123.8021697998047	898.770751953125	42.7678108215332	-17.69499969482422	728.9765014648438	28.63238716125488	-101.2393951416016	670.891845703125	785.791015625	71.13739013671875	625.0283813476562	903.0008544921875	53.62353134155273	
